<svg xmlns="http://www.w3.org/2000/svg" width="360" height="360" viewBox="0 0 360 360">
  <rect width="360" height="360" fill="#0B0B0B"/>
  <g fill="#FFFFFF" opacity="0.08">
    <circle cx="24" cy="40" r="1"/>
    <circle cx="96" cy="88" r="1.5"/>
    <circle cx="170" cy="24" r="1"/>
    <circle cx="238" cy="66" r="1.4"/>
    <circle cx="312" cy="30" r="1"/>
    <circle cx="52" cy="170" r="1.3"/>
    <circle cx="130" cy="214" r="1"/>
    <circle cx="250" cy="184" r="1.5"/>
    <circle cx="320" cy="224" r="1"/>
    <circle cx="76" cy="304" r="1.6"/>
    <circle cx="188" cy="330" r="1"/>
    <circle cx="292" cy="302" r="1.2"/>
  </g>
  <path d="M-20 120c90-20 150-10 240 0s130 5 180-10M-30 260c80 18 150 2 220 12 80 12 130 3 190-10" fill="none" stroke="#AEB4BC" stroke-opacity="0.06" stroke-width="2"/>
</svg>

