<svg xmlns="http://www.w3.org/2000/svg" style="display:none">
  <symbol id="ae-icon-helmet" viewBox="0 0 24 24">
    <path d="M4 13a8 8 0 0 1 16 0v5a2 2 0 0 1-2 2h-6a8 8 0 0 1-8-7Z" fill="none" stroke="currentColor" stroke-width="1.8"/>
    <path d="M11 10h9v4h-7a2 2 0 0 1-2-2v-2Z" fill="none" stroke="currentColor" stroke-width="1.8"/>
  </symbol>
  <symbol id="ae-icon-steering-wheel" viewBox="0 0 24 24">
    <circle cx="12" cy="12" r="8" fill="none" stroke="currentColor" stroke-width="1.8"/>
    <circle cx="12" cy="12" r="2" fill="none" stroke="currentColor" stroke-width="1.8"/>
    <path d="M4.8 10h14.4M10.7 13.7 8 19M13.3 13.7 16 19" fill="none" stroke="currentColor" stroke-width="1.8" stroke-linecap="round"/>
  </symbol>
  <symbol id="ae-icon-podium" viewBox="0 0 24 24">
    <path d="M3 20h18M5 20v-6h5v6M10 20V9h5v11M15 20v-8h4v8" fill="none" stroke="currentColor" stroke-width="1.8"/>
  </symbol>
  <symbol id="ae-icon-track" viewBox="0 0 24 24">
    <path d="M6 18c-3-3-2-8 2-10 3-2 5 2 8-1 3-2 6 1 5 5-.7 4-5 3-7 5-3 3-6 4-8 1Z" fill="none" stroke="currentColor" stroke-width="1.8"/>
    <path d="M8 15c2 1 5 1 8-2" fill="none" stroke="currentColor" stroke-width="1.8" stroke-linecap="round"/>
  </symbol>
  <symbol id="ae-icon-tyre" viewBox="0 0 24 24">
    <circle cx="12" cy="12" r="8" fill="none" stroke="currentColor" stroke-width="1.8"/>
    <circle cx="12" cy="12" r="3.5" fill="none" stroke="currentColor" stroke-width="1.8"/>
    <path d="M12 4v3M12 17v3M4 12h3M17 12h3" stroke="currentColor" stroke-width="1.8" stroke-linecap="round"/>
  </symbol>
  <symbol id="ae-icon-flag" viewBox="0 0 24 24">
    <path d="M6 21V4M6 5h11l-2 4 2 4H6" fill="none" stroke="currentColor" stroke-width="1.8" stroke-linecap="round" stroke-linejoin="round"/>
  </symbol>
  <symbol id="ae-icon-telemetry" viewBox="0 0 24 24">
    <path d="M3 17h3l2-8 4 12 3-10 2 6h4" fill="none" stroke="currentColor" stroke-width="1.8" stroke-linecap="round" stroke-linejoin="round"/>
  </symbol>
  <symbol id="ae-icon-camera" viewBox="0 0 24 24">
    <path d="M4 8h4l2-2h4l2 2h4v11H4V8Z" fill="none" stroke="currentColor" stroke-width="1.8" stroke-linejoin="round"/>
    <circle cx="12" cy="13.5" r="3" fill="none" stroke="currentColor" stroke-width="1.8"/>
  </symbol>
  <symbol id="ae-icon-sponsor" viewBox="0 0 24 24">
    <path d="M7 12h10M12 7v10" stroke="currentColor" stroke-width="1.8" stroke-linecap="round"/>
    <rect x="4" y="4" width="16" height="16" rx="3" fill="none" stroke="currentColor" stroke-width="1.8"/>
  </symbol>
  <symbol id="ae-icon-dashboard" viewBox="0 0 24 24">
    <path d="M4 13a8 8 0 0 1 16 0v6H4v-6Z" fill="none" stroke="currentColor" stroke-width="1.8"/>
    <path d="M12 13 16 9M7 15h2M15 15h2" fill="none" stroke="currentColor" stroke-width="1.8" stroke-linecap="round"/>
  </symbol>
  <symbol id="ae-icon-ai" viewBox="0 0 24 24">
    <rect x="5" y="5" width="14" height="14" rx="3" fill="none" stroke="currentColor" stroke-width="1.8"/>
    <path d="M9 2v3M15 2v3M9 19v3M15 19v3M2 9h3M2 15h3M19 9h3M19 15h3" stroke="currentColor" stroke-width="1.8" stroke-linecap="round"/>
    <path d="M9 15l2-6h2l2 6M10 13h4" fill="none" stroke="currentColor" stroke-width="1.6" stroke-linecap="round" stroke-linejoin="round"/>
  </symbol>
  <symbol id="ae-icon-trophy" viewBox="0 0 24 24">
    <path d="M8 5h8v5a4 4 0 0 1-8 0V5Z" fill="none" stroke="currentColor" stroke-width="1.8"/>
    <path d="M8 7H4v2a4 4 0 0 0 4 4M16 7h4v2a4 4 0 0 1-4 4M12 14v4M8 21h8" fill="none" stroke="currentColor" stroke-width="1.8" stroke-linecap="round"/>
  </symbol>
  <symbol id="ae-icon-calendar" viewBox="0 0 24 24">
    <rect x="4" y="5" width="16" height="15" rx="2" fill="none" stroke="currentColor" stroke-width="1.8"/>
    <path d="M8 3v4M16 3v4M4 10h16" stroke="currentColor" stroke-width="1.8" stroke-linecap="round"/>
  </symbol>
  <symbol id="ae-icon-stopwatch" viewBox="0 0 24 24">
    <circle cx="12" cy="13" r="7" fill="none" stroke="currentColor" stroke-width="1.8"/>
    <path d="M12 13V9M9 3h6M12 3v3M17 7l2-2" stroke="currentColor" stroke-width="1.8" stroke-linecap="round"/>
  </symbol>
  <symbol id="ae-icon-map" viewBox="0 0 24 24">
    <path d="M4 6l5-2 6 2 5-2v14l-5 2-6-2-5 2V6Z" fill="none" stroke="currentColor" stroke-width="1.8" stroke-linejoin="round"/>
    <path d="M9 4v14M15 6v14" stroke="currentColor" stroke-width="1.8"/>
  </symbol>
  <symbol id="ae-icon-garage" viewBox="0 0 24 24">
    <path d="M3 20V9l9-5 9 5v11M7 20v-8h10v8" fill="none" stroke="currentColor" stroke-width="1.8" stroke-linejoin="round"/>
    <path d="M7 15h10" stroke="currentColor" stroke-width="1.8"/>
  </symbol>
  <symbol id="ae-icon-radio" viewBox="0 0 24 24">
    <rect x="7" y="8" width="10" height="12" rx="2" fill="none" stroke="currentColor" stroke-width="1.8"/>
    <path d="M10 8V4h4v4M10 13h4M10 17h4" stroke="currentColor" stroke-width="1.8" stroke-linecap="round"/>
  </symbol>
  <symbol id="ae-icon-wrench" viewBox="0 0 24 24">
    <path d="M14 6a5 5 0 0 0 6 6L11 21l-4-4 9-9a5 5 0 0 1-2-2Z" fill="none" stroke="currentColor" stroke-width="1.8" stroke-linejoin="round"/>
  </symbol>
  <symbol id="ae-icon-hospitality" viewBox="0 0 24 24">
    <path d="M4 11h16v9H4v-9ZM6 11V7a6 6 0 0 1 12 0v4" fill="none" stroke="currentColor" stroke-width="1.8"/>
    <path d="M8 15h8" stroke="currentColor" stroke-width="1.8" stroke-linecap="round"/>
  </symbol>
  <symbol id="ae-icon-press" viewBox="0 0 24 24">
    <path d="M6 3h9l3 3v15H6V3Z" fill="none" stroke="currentColor" stroke-width="1.8" stroke-linejoin="round"/>
    <path d="M14 3v4h4M9 11h6M9 15h6M9 18h3" stroke="currentColor" stroke-width="1.8" stroke-linecap="round"/>
  </symbol>
  <symbol id="ae-icon-video" viewBox="0 0 24 24">
    <rect x="4" y="6" width="12" height="12" rx="2" fill="none" stroke="currentColor" stroke-width="1.8"/>
    <path d="M16 10l4-2v8l-4-2" fill="none" stroke="currentColor" stroke-width="1.8" stroke-linejoin="round"/>
  </symbol>
  <symbol id="ae-icon-analytics" viewBox="0 0 24 24">
    <path d="M4 20V4M4 20h16" stroke="currentColor" stroke-width="1.8" stroke-linecap="round"/>
    <path d="M8 16v-5M12 16V8M16 16v-9" stroke="currentColor" stroke-width="1.8" stroke-linecap="round"/>
  </symbol>
  <symbol id="ae-icon-search" viewBox="0 0 24 24">
    <circle cx="10.5" cy="10.5" r="6.5" fill="none" stroke="currentColor" stroke-width="1.8"/>
    <path d="M15.5 15.5 21 21" stroke="currentColor" stroke-width="1.8" stroke-linecap="round"/>
  </symbol>
  <symbol id="ae-icon-globe" viewBox="0 0 24 24">
    <circle cx="12" cy="12" r="8" fill="none" stroke="currentColor" stroke-width="1.8"/>
    <path d="M4 12h16M12 4c2 2 3 5 3 8s-1 6-3 8M12 4c-2 2-3 5-3 8s1 6 3 8" fill="none" stroke="currentColor" stroke-width="1.8"/>
  </symbol>
  <symbol id="ae-icon-shield" viewBox="0 0 24 24">
    <path d="M12 3 20 6v6c0 5-3.3 8-8 9-4.7-1-8-4-8-9V6l8-3Z" fill="none" stroke="currentColor" stroke-width="1.8" stroke-linejoin="round"/>
  </symbol>
  <symbol id="ae-icon-target" viewBox="0 0 24 24">
    <circle cx="12" cy="12" r="8" fill="none" stroke="currentColor" stroke-width="1.8"/>
    <circle cx="12" cy="12" r="4" fill="none" stroke="currentColor" stroke-width="1.8"/>
    <circle cx="12" cy="12" r="1" fill="currentColor"/>
  </symbol>
  <symbol id="ae-icon-handshake" viewBox="0 0 24 24">
    <path d="M7 12 4 9l4-4 4 4M17 12l3-3-4-4-4 4" fill="none" stroke="currentColor" stroke-width="1.8" stroke-linejoin="round"/>
    <path d="M8 13l3 3a2 2 0 0 0 3 0l2-2M10 9l4 4" fill="none" stroke="currentColor" stroke-width="1.8" stroke-linecap="round"/>
  </symbol>
  <symbol id="ae-icon-document" viewBox="0 0 24 24">
    <path d="M6 3h8l4 4v14H6V3Z" fill="none" stroke="currentColor" stroke-width="1.8" stroke-linejoin="round"/>
    <path d="M14 3v5h4M9 12h6M9 16h6" stroke="currentColor" stroke-width="1.8" stroke-linecap="round"/>
  </symbol>
  <symbol id="ae-icon-user" viewBox="0 0 24 24">
    <circle cx="12" cy="8" r="4" fill="none" stroke="currentColor" stroke-width="1.8"/>
    <path d="M4 21a8 8 0 0 1 16 0" fill="none" stroke="currentColor" stroke-width="1.8" stroke-linecap="round"/>
  </symbol>
  <symbol id="ae-icon-kart" viewBox="0 0 24 24">
    <path d="M5 15h14l-2-5h-4l-2-3H8l2 3H7l-2 5Z" fill="none" stroke="currentColor" stroke-width="1.8" stroke-linejoin="round"/>
    <circle cx="7" cy="18" r="2" fill="none" stroke="currentColor" stroke-width="1.8"/>
    <circle cx="17" cy="18" r="2" fill="none" stroke="currentColor" stroke-width="1.8"/>
  </symbol>
  <symbol id="ae-icon-email" viewBox="0 0 24 24">
    <rect x="4" y="6" width="16" height="12" rx="2" fill="none" stroke="currentColor" stroke-width="1.8"/>
    <path d="M5 8l7 6 7-6" fill="none" stroke="currentColor" stroke-width="1.8" stroke-linejoin="round"/>
  </symbol>
  <symbol id="ae-icon-megaphone" viewBox="0 0 24 24">
    <path d="M4 14h4l10 4V6L8 10H4v4Z" fill="none" stroke="currentColor" stroke-width="1.8" stroke-linejoin="round"/>
    <path d="M8 14l2 6" stroke="currentColor" stroke-width="1.8" stroke-linecap="round"/>
  </symbol>
  <symbol id="ae-icon-school" viewBox="0 0 24 24">
    <path d="M3 9l9-5 9 5-9 5-9-5Z" fill="none" stroke="currentColor" stroke-width="1.8" stroke-linejoin="round"/>
    <path d="M7 12v4c3 2 7 2 10 0v-4M21 9v7" fill="none" stroke="currentColor" stroke-width="1.8" stroke-linecap="round"/>
  </symbol>
  <symbol id="ae-icon-community" viewBox="0 0 24 24">
    <circle cx="8" cy="9" r="3" fill="none" stroke="currentColor" stroke-width="1.8"/>
    <circle cx="16" cy="9" r="3" fill="none" stroke="currentColor" stroke-width="1.8"/>
    <path d="M3 21a5 5 0 0 1 10 0M11 21a5 5 0 0 1 10 0" fill="none" stroke="currentColor" stroke-width="1.8" stroke-linecap="round"/>
  </symbol>
  <symbol id="ae-icon-revenue" viewBox="0 0 24 24">
    <path d="M4 18h16M6 18V9h4v9M14 18V5h4v13" fill="none" stroke="currentColor" stroke-width="1.8" stroke-linejoin="round"/>
    <path d="M10 9l4-4" stroke="currentColor" stroke-width="1.8" stroke-linecap="round"/>
  </symbol>
  <symbol id="ae-icon-lock" viewBox="0 0 24 24">
    <rect x="5" y="10" width="14" height="10" rx="2" fill="none" stroke="currentColor" stroke-width="1.8"/>
    <path d="M8 10V7a4 4 0 0 1 8 0v3" fill="none" stroke="currentColor" stroke-width="1.8" stroke-linecap="round"/>
  </symbol>
</svg>

